<svg id="Logotipo-Netwey-White-min" xmlns="http://www.w3.org/2000/svg" width="258.152" height="50.047" viewBox="0 0 258.152 50.047">
  <path id="Path_3" data-name="Path 3" d="M72.434,15a4.726,4.726,0,0,0-4.713,4.713v31.1a4.713,4.713,0,1,0,9.425,0v-31.1A4.667,4.667,0,0,0,72.434,15M58.2,19.43a4.726,4.726,0,0,0-4.713,4.713V50.815a4.713,4.713,0,0,0,9.425,0V24.142A4.789,4.789,0,0,0,58.2,19.43M43.876,23.954a4.726,4.726,0,0,0-4.713,4.713V50.815a4.713,4.713,0,1,0,9.425,0V28.666a4.667,4.667,0,0,0-4.713-4.713M34.357,40.636A11.835,11.835,0,0,0,10.7,40.542V50.815a4.726,4.726,0,0,0,4.713,4.713,4.667,4.667,0,0,0,4.713-4.713v-9.9a2.451,2.451,0,0,1,4.9,0v9.9a4.713,4.713,0,1,0,9.425,0V40.825a.292.292,0,0,1-.094-.188" transform="translate(-10.7 -15)" fill="#e0027a"/>
  <path id="Path_4" data-name="Path 4" d="M260.284,31.842a3.95,3.95,0,0,1-.377,1.414l-11.027,26.3c-1.885,4.336-4.618,5.844-8.671,5.938-.942,0-1.414-.094-1.7-.094a2.21,2.21,0,0,1-2.168-2.262,2,2,0,0,1,2.073-2.168c.377,0,.754.094,1.508.094,2.545,0,4.053-.848,4.807-2.828l1.131-2.828L236.345,33.35a4.527,4.527,0,0,1-.377-1.414,2.351,2.351,0,0,1,2.451-2.356,2.6,2.6,0,0,1,2.451,1.7l7.446,17.908,7.163-18a2.43,2.43,0,0,1,2.451-1.6,2.248,2.248,0,0,1,2.356,2.262m-123,19.887a11.318,11.318,0,0,0,4.618-.942,8.44,8.44,0,0,1,2.451-.848,2.035,2.035,0,0,1,1.979,2.168,2.369,2.369,0,0,1-1.225,2.074,16.952,16.952,0,0,1-8.388,1.885c-8.294,0-12.724-5.09-12.724-13.478,0-7.823,4.713-13.007,12.064-13.007,7.163,0,10.933,5.278,10.933,11.876,0,1.7-.848,2.545-2.639,2.545h-15.08c.377,5.184,2.922,7.729,8.011,7.729m-8.011-11.216H142c-.283-4.807-2.733-6.6-5.938-6.6-3.487,0-6.126,1.7-6.786,6.6m30.349-6.032V48.336c0,2.639,1.131,3.3,2.922,3.3.471,0,.848-.094,1.791-.188a1.85,1.85,0,0,1,2.168,1.979,2.39,2.39,0,0,1-1.885,2.356,19.778,19.778,0,0,1-3.393.283c-4.524,0-6.786-1.6-6.786-7.352V34.481H151.8a2.057,2.057,0,0,1-2.073-2.168,2,2,0,0,1,2.073-2.168h2.639v-5A2.429,2.429,0,0,1,157.08,22.7a2.456,2.456,0,0,1,2.545,2.451v5h3.864a2,2,0,0,1,2.074,2.168,2.114,2.114,0,0,1-2.074,2.168Zm63.148,17.248a11.318,11.318,0,0,0,4.618-.942,8.44,8.44,0,0,1,2.451-.848,2.035,2.035,0,0,1,1.979,2.168A2.369,2.369,0,0,1,230.6,54.18a16.952,16.952,0,0,1-8.388,1.885c-8.294,0-12.724-5.09-12.724-13.478,0-7.823,4.713-13.007,12.064-13.007,7.163,0,10.933,5.278,10.933,11.876,0,1.7-.848,2.545-2.639,2.545h-15.08c.377,5.184,2.922,7.729,8.011,7.729m-7.917-11.216H227.58c-.283-4.807-2.733-6.6-5.938-6.6-3.582,0-6.221,1.7-6.786,6.6M107.881,29.58a11.552,11.552,0,0,1,11.781,11.781V53.237a2.639,2.639,0,1,1-5.278,0V40.8a6.506,6.506,0,0,0-13.007,0V53.331a2.639,2.639,0,1,1-5.278,0V41.362A11.552,11.552,0,0,1,107.881,29.58m97.078,16.871V32.408a2.639,2.639,0,0,0-5.278,0V47.3a4.336,4.336,0,0,1-8.671,0V32.408a2.639,2.639,0,0,0-5.278,0V47.3a4.336,4.336,0,1,1-8.671,0V32.408a2.639,2.639,0,0,0-5.278,0V46.451a9.654,9.654,0,0,0,9.614,9.614,9.54,9.54,0,0,0,6.975-3.016,9.6,9.6,0,0,0,16.588-6.6m68.8-12.158a4.524,4.524,0,0,1-9.048,0,4.524,4.524,0,1,1,9.048,0m-.471,0a3.83,3.83,0,0,0-4.147-4.053,3.759,3.759,0,0,0-4.053,4.053,3.759,3.759,0,0,0,4.053,4.053,3.83,3.83,0,0,0,4.147-4.053m-3.582.377,1.037,1.791v.094a.2.2,0,0,1-.189.189c-.094,0-.189,0-.283-.189l-1.037-1.885h-1.225v1.791c0,.094-.094.283-.188.283a.25.25,0,0,1-.283-.283V31.842c0-.094.094-.189.283-.189h1.414c1.131,0,1.791.566,1.791,1.508a1.392,1.392,0,0,1-1.32,1.508m.848-1.508c0-.848-.471-1.225-1.319-1.225h-1.225v2.356h1.225c.848.094,1.319-.283,1.319-1.131" transform="translate(-15.61 -15.443)" fill="#fff"/>
</svg>
